<?xml version="1.0" standalone="no"?>
<!DOCTYPE svg PUBLIC "-//W3C//DTD SVG 1.1//EN" "http://www.w3.org/Graphics/SVG/1.1/DTD/svg11.dtd" >
<svg xmlns="http://www.w3.org/2000/svg" width="100%" height="100%">
<metadata>
Created by FontXChange 20110222 at Sat Mar 15 16:23:23 2014
 By NC
</metadata>
<defs>
<font id="StitchGothic23-testHEAVY" horiz-adv-x="477" >
  <font-face 
    font-family="StitchGothic23"
    font-weight="800"
    font-stretch="normal"
    units-per-em="1000"
    panose-1="2 0 9 3 0 0 0 0 0 0"
    ascent="800"
    descent="-200"
    x-height="528"
    cap-height="765"
    bbox="-34 -209 909 854"
    underline-thickness="20"
    underline-position="-133"
    stemh="62.000"
    stemv="95.000"
    unicode-range="U+001B-0161"
  />
    <missing-glyph />
    <glyph glyph-name="uni001B" horiz-adv-x="250" 
 />
    <glyph glyph-name="uni001E" horiz-adv-x="3725" 
 />
    <glyph glyph-name="uni001F" horiz-adv-x="2803" 
 />
    <glyph glyph-name="space" unicode=" " horiz-adv-x="250" 
 />
    <glyph glyph-name="exclam" unicode="!" horiz-adv-x="303" 
d="M200 238h-114l-25 532l174 -5zM60 0v160h162v-160h-162z" />
    <glyph glyph-name="quotedbl" unicode="&#x22;" horiz-adv-x="450" 
d="M243 576v190h159v-190h-159zM25 576v190h158v-190h-158z" />
    <glyph glyph-name="numbersign" unicode="#" horiz-adv-x="596" 
d="M455 455l-18 -117h57v-111h-74l-31 -207h-136l32 207h-46l-32 -207h-136l32 207h-43v111h60l18 117h-46v111h63l32 207h136l-32 -207h46l32 207h134l-31 -207h54v-111h-71zM274 455l-18 -117h46l18 117h-46z" />
    <glyph glyph-name="dollar" unicode="$" horiz-adv-x="565" 
d="M539 232c0 -127 -83 -221 -207 -242v-64h-117v64c-141 24 -194 134 -194 268h161c0 -71 12 -146 98 -146c59 0 96 50 96 106c0 214 -332 85 -332 363c0 101 79 171 171 195v78h117v-72c122 -17 174 -108 174 -223c-51 -1 -103 -1 -154 -1v9c1 47 -9 100 -67 100
c-48 0 -76 -28 -76 -76c0 -46 51 -63 86 -76c150 -56 244 -105 244 -283z" />
    <glyph glyph-name="percent" unicode="%" horiz-adv-x="610" 
d="M202 551c-90 0 -112 51 -112 85v42c0 50 32 90 114 90c95 0 108 -52 108 -90v-41c0 -37 -22 -86 -110 -86zM202 2h-75l292 753h75zM436 -8c-90 0 -111 51 -111 84v42c0 51 31 92 113 92c95 0 108 -53 108 -92v-41c0 -36 -22 -85 -110 -85zM206 600c31 2 34 33 34 40v35v8
c0 9 -1 17 -3 21c-7 16 -17 25 -37 19c-21 -1 -33 -15 -35 -37v-12v-35c0 -4 0 -8 2 -20c11 -17 21 -24 39 -19zM441 42c25 2 33 24 33 38v35v9c0 8 -1 16 -3 21c-7 16 -17 25 -37 19c-16 -1 -32 -9 -35 -37v-12v-36c0 -3 0 -7 2 -19c12 -18 23 -25 40 -18z" />
    <glyph glyph-name="ampersand" unicode="&#x26;" horiz-adv-x="653" 
d="M482 3l-33 40c-58 -33 -122 -45 -189 -45c-115 0 -230 57 -230 186c0 101 69 160 141 218c-39 57 -66 117 -66 187c0 121 105 175 213 175c101 0 186 -68 186 -173c0 -82 -69 -155 -127 -205l91 -122c25 31 50 61 74 92l119 -70c-34 -48 -66 -98 -102 -144l105 -139h-182
zM311 650c-36 0 -59 -21 -59 -57c0 -42 15 -61 40 -93c29 27 59 57 59 100c0 30 -6 50 -40 50zM258 292c-27 -25 -57 -61 -57 -100c0 -50 31 -62 76 -62c31 0 61 7 88 22c-36 47 -70 95 -107 140z" />
    <glyph glyph-name="quotesingle" unicode="'" horiz-adv-x="288" 
d="M60 576v190h158v-190h-158z" />
    <glyph glyph-name="parenleft" unicode="(" horiz-adv-x="369" 
d="M236 391c0 0 0 -183 70 -435h-93c-154 194 -153 434 -153 434c0 7 2 243 155 437h94c-73 -240 -73 -436 -73 -436z" />
    <glyph glyph-name="parenright" unicode=")" horiz-adv-x="369" 
d="M146 -44h-93c70 252 70 435 70 435s0 196 -73 436h94c156 -197 155 -437 155 -437c0 -7 -2 -243 -153 -434z" />
    <glyph glyph-name="asterisk" unicode="*" horiz-adv-x="535" 
d="M476 553l-66 -104l-96 76c2 -39 8 -79 18 -116l-139 3c8 36 13 75 14 112c-35 -18 -68 -43 -96 -71l-63 103c38 -1 87 7 122 22c-39 17 -83 28 -124 39l72 105c21 -28 56 -56 87 -71l-13 112h137l-14 -113l93 73l67 -104l-111 -41z" />
    <glyph glyph-name="plus" unicode="+" horiz-adv-x="557" 
d="M348 285v-133v-35h-156v35v133h-175v138h175v117v35h156v-35v-117h177v-138h-177z" />
    <glyph glyph-name="comma" unicode="," horiz-adv-x="307" 
d="M141 -110l-101 43c20 68 31 176 31 176l172 -21c-26 -93 -102 -198 -102 -198z" />
    <glyph glyph-name="hyphen" unicode="-" horiz-adv-x="325" 
d="M17 307v96h299v-96h-299z" />
    <glyph glyph-name="period" unicode="." horiz-adv-x="292" 
d="M60 0v113h162v-113h-162z" />
    <glyph glyph-name="slash" unicode="/" horiz-adv-x="442" 
d="M212 2h-159l173 775h153z" />
    <glyph glyph-name="zero" unicode="0" horiz-adv-x="541" 
d="M281 -20c-198 0 -250 201 -250 320v140c0 168 69 352 250 352c185 0 228 -197 228 -352v-140c0 -129 -43 -320 -228 -320zM349 440c0 54 15 232 -70 232c-81 0 -74 -181 -74 -232v-140c0 -55 -6 -191 74 -191c76 0 70 138 70 191v140z" />
    <glyph glyph-name="one" unicode="1" horiz-adv-x="314" 
d="M117 0v606l-89 -63v147l109 77h137v-767h-157z" />
    <glyph glyph-name="two" unicode="2" horiz-adv-x="517" 
d="M22 1v102c61 74 296 384 296 480c0 35 -19 68 -57 68c-81 0 -76 -93 -76 -151h-163c0 156 69 288 240 288c121 0 215 -92 215 -213c0 -128 -162 -360 -243 -451h236v-123h-448z" />
    <glyph glyph-name="three" unicode="3" horiz-adv-x="513" 
d="M253 -13c-224 0 -231 162 -231 265h161c0 -123 28 -139 70 -139c25 0 62 19 62 118c0 73 -7 128 -74 128v112c74 0 77 50 77 92c0 59 -17 97 -59 97c-44 0 -70 -20 -70 -131h-150c0 213 121 256 220 256c97 0 211 -60 211 -226c0 0 -2 -89 -65 -142
c55 -42 76 -116 76 -186c0 -71 -31 -244 -228 -244z" />
    <glyph glyph-name="four" unicode="4" horiz-adv-x="509" 
d="M436 149v-149h-162v149h-246v87l191 529h155l-176 -505h76l10 92h152v-92h68v-111h-68z" />
    <glyph glyph-name="five" unicode="5" horiz-adv-x="533" 
d="M257 -13c-225 0 -226 196 -212 266h158c-5 -112 20 -152 68 -152c36 0 60 41 60 152c0 115 -24 154 -129 97l-131 1v415h382v-106h-226l-1 -199c27 9 58 23 98 23c61 0 169 -54 169 -231c0 -165 -60 -266 -236 -266z" />
    <glyph glyph-name="six" unicode="6" horiz-adv-x="495" 
d="M241 -12c-163 0 -222 126 -222 249c0 51 11 99 31 146c52 123 105 245 170 383h146l-123 -289c12 2 35 4 48 4c143 0 178 -158 178 -238c0 -123 -67 -255 -228 -255zM254 375c-22 0 -43 -6 -49 -13c-7 -15 -29 -70 -29 -130c0 -47 9 -113 73 -113c55 0 59 96 59 148
c0 36 -7 108 -54 108z" />
    <glyph glyph-name="seven" unicode="7" horiz-adv-x="524" 
d="M270 0h-174l246 648h-163v-93h-147v211h478v-87z" />
    <glyph glyph-name="eight" unicode="8" horiz-adv-x="594" 
d="M296 -16c-183 0 -265 99 -265 247c0 75 30 148 93 196c-42 37 -61 95 -61 143c0 129 91 223 241 223c156 0 222 -95 222 -223c0 -46 -18 -105 -61 -141c67 -44 97 -126 97 -195c0 -150 -99 -250 -266 -250zM303 694c-71 0 -80 -69 -80 -123c0 -49 37 -96 79 -96
c44 0 74 42 74 95c0 58 -13 124 -73 124zM291 359c-51 0 -94 -58 -94 -122c0 -69 32 -128 91 -128c63 0 98 55 98 125c0 71 -37 125 -95 125z" />
    <glyph glyph-name="nine" unicode="9" horiz-adv-x="531" 
d="M273 674c-67 0 -88 -75 -88 -129c0 -43 20 -102 71 -102c72 0 93 72 93 131c0 48 -21 100 -76 100zM319 -7h-176l141 329c-20 -9 -43 -13 -65 -13c-135 0 -194 133 -194 250c0 147 96 237 241 237c146 0 233 -88 233 -234c0 -70 -18 -137 -41 -203
c-44 -123 -93 -244 -139 -366z" />
    <glyph glyph-name="colon" unicode=":" horiz-adv-x="292" 
d="M60 373v155h162v-155h-162zM60 0v155h162v-155h-162z" />
    <glyph glyph-name="semicolon" unicode=";" horiz-adv-x="307" 
d="M69 370v158h162v-158h-162zM141 -112l-101 51c20 81 31 207 31 207l172 -25c-26 -109 -102 -233 -102 -233z" />
    <glyph glyph-name="less" unicode="&#x3c;" horiz-adv-x="742" 
d="M33 329v92l652 253v-145l-417 -154l419 -156v-136z" />
    <glyph glyph-name="equal" unicode="=" horiz-adv-x="613" 
d="M52 398v131h508v-131h-508zM52 219v131h508v-131h-508z" />
    <glyph glyph-name="greater" unicode="&#x3e;" horiz-adv-x="742" 
d="M33 83v136l419 156l-417 154v145l652 -253v-92z" />
    <glyph glyph-name="question" unicode="?" horiz-adv-x="554" 
d="M450 461c-45 -63 -100 -72 -108 -159c-3 -34 -1 -8 -3 -64h-125c0 96 -24 156 50 234c35 37 66 65 66 120c0 44 -23 74 -55 74c-44 0 -56 -55 -56 -84c0 -12 1 -24 7 -68h-166c0 141 58 260 210 260c126 0 214 -80 214 -198c0 -50 -13 -85 -34 -115zM196 -2v161h162v-161
h-162z" />
    <glyph glyph-name="at" unicode="@" horiz-adv-x="968" 
d="M909 463c0 -98 -48 -185 -120 -250c-43 -39 -101 -68 -160 -68c-65 0 -107 38 -106 104c-36 -16 -76 -29 -116 -29c-84 0 -132 58 -132 139c0 19 3 38 8 57c30 116 129 206 251 206c37 0 115 -16 145 -33l5 -12l-73 -271c-5 -18 -8 -36 -8 -54c0 -23 7 -46 34 -46
c48 0 106 59 131 95c33 49 56 114 56 173c0 157 -160 267 -306 267c-104 0 -209 -49 -270 -134c-50 -69 -79 -166 -79 -251c0 -104 41 -193 130 -250c63 -40 137 -62 212 -62c115 0 229 50 309 132l51 -52c-97 -101 -230 -165 -372 -165c-75 0 -149 18 -216 50
c-143 69 -224 187 -224 346c0 89 29 202 84 274c86 114 222 192 367 192c196 0 399 -150 399 -358zM587 582c-14 4 -28 6 -43 6c-107 0 -171 -137 -171 -230c0 -53 27 -81 81 -81c20 0 40 3 59 8z" />
    <glyph glyph-name="A" unicode="A" horiz-adv-x="574" 
d="M405 0l-31 138h-149l-31 -138h-178l210 766h161l208 -766h-190zM300 565l-54 -319h104z" />
    <glyph glyph-name="B" unicode="B" horiz-adv-x="613" 
d="M426 430c74 7 162 -74 162 -209c0 -220 -177 -249 -366 -238c-33 2 -101 6 -143 19l-29 29v682l18 33c67 18 118 27 178 30c176 10 286 -55 286 -200c0 -62 -50 -128 -106 -146zM210 679v-213c114 -10 164 25 164 111c0 83 -59 134 -164 102zM210 356v-272
c159 -21 204 44 204 145c0 92 -45 147 -204 127z" />
    <glyph glyph-name="C" unicode="C" horiz-adv-x="581" 
d="M310 -20c-257 0 -280 251 -280 405c0 157 50 403 285 403c141 0 226 -98 226 -284l-146 -2c0 84 -18 156 -87 156c-88 0 -102 -202 -102 -273c0 -70 -4 -266 104 -266c75 0 82 102 82 172c63 0 154 -2 154 -2c0 -85 0 -309 -236 -309z" />
    <glyph glyph-name="D" unicode="D" horiz-adv-x="605" 
d="M77 752c74 20 126 33 186 33c248 0 313 -189 313 -370c0 -208 -58 -423 -355 -423c-67 0 -117 11 -140 23c0 0 -25 23 -25 33v665zM217 681v-589c174 -5 189 181 189 310c0 100 -9 316 -189 279z" />
    <glyph glyph-name="E" unicode="E" horiz-adv-x="521" 
d="M50 0v765h429v-104h-271v-194h238v-112h-235v-241h280v-114h-441z" />
    <glyph glyph-name="F" unicode="F" horiz-adv-x="523" 
d="M213 662v-192h251v-114h-251v-356h-163v765h463v-103h-300z" />
    <glyph glyph-name="G" unicode="G" horiz-adv-x="601" 
d="M396 305h-73v109h243v-415h-88l-33 50c-15 -34 -83 -65 -127 -65c-262 0 -288 252 -288 416c0 152 65 381 285 381c152 0 233 -104 233 -267h-164c0 89 -12 147 -70 147c-99 0 -111 -171 -111 -248c0 -89 -14 -305 117 -305c87 0 76 139 76 197z" />
    <glyph glyph-name="H" unicode="H" horiz-adv-x="596" 
d="M387 0v351h-175v-351h-162v765h162v-301h175v301h154v-765h-154z" />
    <glyph glyph-name="I" unicode="I" horiz-adv-x="275" 
d="M50 0v765h170v-765h-170z" />
    <glyph glyph-name="J" unicode="J" horiz-adv-x="569" 
d="M263 -20c-176 0 -248 112 -248 345h164c0 -229 83 -209 83 -209c82 0 80 162 80 183v466h172v-442c0 -148 -11 -343 -251 -343z" />
    <glyph glyph-name="K" unicode="K" horiz-adv-x="652" 
d="M427 0l-212 328v-328h-165v765h165v-264l172 264h199l-153 -221c-33 -45 -87 -115 -87 -115s52 -67 85 -111c0 0 143 -192 231 -318h-235z" />
    <glyph glyph-name="L" unicode="L" horiz-adv-x="471" 
d="M50 0v765h172v-652h244v-113h-416z" />
    <glyph glyph-name="M" unicode="M" horiz-adv-x="693" 
d="M204 515c0 0 5 -46 5 -93v-422h-152v765h169l140 -350l139 350h162v-765h-164v422c0 62 4 93 4 93s-5 -25 -31 -86l-80 -186h-80l-80 185c-29 65 -32 87 -32 87z" />
    <glyph glyph-name="N" unicode="N" horiz-adv-x="619" 
d="M436 200c0 0 -12 51 -12 128v437h143v-766h-206l-142 404c-33 80 -43 118 -43 118s14 -46 14 -124v-398h-141v766h190l156 -442c27 -60 41 -123 41 -123z" />
    <glyph glyph-name="O" unicode="O" horiz-adv-x="616" 
d="M310 -20c-229 0 -280 193 -280 404c0 217 84 402 278 402c210 0 273 -192 273 -402c0 -223 -48 -404 -271 -404zM310 661c-85 0 -95 -154 -95 -273c0 -103 -7 -288 98 -288c106 0 98 190 98 288c0 116 -5 273 -101 273z" />
    <glyph glyph-name="P" unicode="P" horiz-adv-x="574" 
d="M219 298v-298h-169v720l25 31c81 27 173 31 218 31c136 0 271 -73 271 -240c0 -185 -201 -256 -345 -244zM220 681v-271c93 -15 173 25 173 137c0 119 -76 158 -173 134z" />
    <glyph glyph-name="Q" unicode="Q" horiz-adv-x="645" 
d="M310 661c-85 0 -95 -154 -95 -273c0 -103 -7 -288 98 -288c106 0 98 190 98 288c0 116 -5 273 -101 273zM530 100h105v-120h-325c-229 0 -280 193 -280 404c0 217 84 402 278 402c210 0 273 -192 273 -402c0 -110 -12 -211 -51 -284z" />
    <glyph glyph-name="R" unicode="R" horiz-adv-x="600" 
d="M394 0l-182 335v-335h-162v726l25 29c201 36 484 73 484 -198c0 -163 -172 -203 -188 -206l224 -351h-201zM212 673v-239c111 -9 174 37 174 131c0 104 -41 122 -174 108z" />
    <glyph glyph-name="S" unicode="S" horiz-adv-x="573" 
d="M523 529c0 0 -69 -1 -154 -1c-2 95 -18 129 -86 129c-54 0 -75 -34 -75 -82c0 -152 330 -95 330 -350c0 -148 -74 -240 -262 -240c-153 0 -246 68 -246 273h161c0 -110 43 -146 98 -146c44 0 86 24 86 98c0 130 -333 113 -333 331c0 130 75 239 244 239
c204 0 237 -147 237 -251z" />
    <glyph glyph-name="T" unicode="T" horiz-adv-x="541" 
d="M344 651v-651h-172v651h-178v114h521v-114h-171z" />
    <glyph glyph-name="U" unicode="U" horiz-adv-x="588" 
d="M294 -22c-207 0 -244 141 -244 310v477h172v-447c0 -50 -4 -212 71 -212c84 0 85 122 85 217v442h155v-472c0 -187 -53 -315 -239 -315z" />
    <glyph glyph-name="V" unicode="V" horiz-adv-x="591" 
d="M387 -1h-213l-190 765h189l105 -532c14 -72 15 -121 15 -121s3 63 15 122l98 531h169z" />
    <glyph glyph-name="W" unicode="W" horiz-adv-x="766" 
d="M622 -1h-175l-44 377c-8 67 -8 105 -13 172c-5 -67 -5 -105 -15 -172l-48 -377h-172l-155 766h183l72 -422c13 -64 18 -150 18 -150s4 88 12 150l54 422h150l53 -413c11 -75 7 -120 9 -161c0 0 6 94 20 159l76 415h139z" />
    <glyph glyph-name="X" unicode="X" horiz-adv-x="591" 
d="M398 0l-115 280l-110 -280h-173l204 399l-185 366h179l97 -224l90 224h162l-173 -341l217 -424h-193z" />
    <glyph glyph-name="Y" unicode="Y" horiz-adv-x="576" 
d="M360 335v-335h-172v326l-204 439h179l122 -281l121 281h154z" />
    <glyph glyph-name="Z" unicode="Z" horiz-adv-x="544" 
d="M10 102c74 148 332 549 332 549h-302v114h494v-102l-328 -550h321v-113h-517v102z" />
    <glyph glyph-name="bracketleft" unicode="[" horiz-adv-x="373" 
d="M60 -43v871h243v-113h-77v-642h77v-116h-243z" />
    <glyph glyph-name="backslash" unicode="\" horiz-adv-x="442" 
d="M220 2l-167 775h153l173 -775h-159z" />
    <glyph glyph-name="bracketright" unicode="]" horiz-adv-x="373" 
d="M303 -43v871h-243v-113h77v-642h-77v-116h243z" />
    <glyph glyph-name="asciicircum" unicode="^" horiz-adv-x="776" 
d="M563 341l-180 291l-181 -293h-163l287 461h115l286 -459h-164z" />
    <glyph glyph-name="underscore" unicode="_" horiz-adv-x="778" 
d="M60 -3v54h648v-54h-648z" />
    <glyph glyph-name="grave" unicode="`" horiz-adv-x="269" 
d="M197 614c-77 29 -174 40 -174 40l74 116c111 -41 177 -99 177 -99z" />
    <glyph glyph-name="a" unicode="a" 
d="M295 -23l-3 32c-40 -15 -85 -28 -128 -28c-104 0 -139 87 -139 169c0 117 47 196 173 196c28 0 55 -4 82 -10c0 36 8 121 -48 121c-36 0 -42 -40 -42 -68h-148c0 125 83 167 198 167c126 0 197 -48 197 -180v-369zM279 239c-14 4 -28 8 -43 8c-50 0 -53 -54 -53 -92
c0 -41 18 -71 58 -71c13 0 26 3 38 6v149z" />
    <glyph glyph-name="b" unicode="b" horiz-adv-x="513" 
d="M68 1l-28 28v730l150 54v-252c188 57 291 -101 291 -285c0 -296 -240 -313 -413 -275zM191 456v-367c98 5 117 71 117 207c0 154 -63 184 -117 160z" />
    <glyph glyph-name="c" unicode="c" horiz-adv-x="492" 
d="M247 -20c-156 0 -222 107 -222 306c0 150 83 254 234 254c15 0 197 10 197 -191h-156c0 36 -12 76 -51 76c-57 0 -58 -107 -58 -137c0 -39 -1 -196 59 -196c40 0 54 43 54 103h156c0 -95 -16 -215 -213 -215z" />
    <glyph glyph-name="d" unicode="d" horiz-adv-x="516" 
d="M338 -27l-2 17c-19 -6 -40 -9 -58 -9c-168 0 -253 106 -253 293c0 174 82 268 240 268c20 0 25 -2 57 -8v225l154 53v-806zM322 439c-11 5 -22 8 -32 8c-74 0 -96 -70 -96 -153c0 -141 29 -204 107 -204c6 0 14 1 21 4v345z" />
    <glyph glyph-name="e" unicode="e" horiz-adv-x="490" 
d="M191 239c-1 -64 -1 -149 65 -149c33 0 48 33 48 95h151c-1 -112 -68 -209 -204 -209c-139 0 -226 112 -226 301s104 264 225 264c185 0 208 -139 208 -302h-267zM251 437c-50 0 -54 -58 -54 -93h107c0 45 -3 93 -53 93z" />
    <glyph glyph-name="f" unicode="f" horiz-adv-x="408" 
d="M377 425h-117v-425h-157v425h-93v105h93c7 110 40 278 305 278v-121c-88 0 -149 -53 -151 -157h120v-105z" />
    <glyph glyph-name="g" unicode="g" horiz-adv-x="522" 
d="M321 352c0 33 -17 83 -57 83c-39 0 -59 -45 -59 -79c0 -41 8 -99 61 -99c40 0 55 64 55 95zM389 -35c0 11 -9 13 -18 13c-36 0 -72 -3 -108 -3c-47 0 -99 1 -144 18c-12 -9 -19 -14 -19 -30c0 -53 126 -55 163 -55c33 0 126 11 126 57zM532 -3
c0 -155 -140 -204 -272 -204c-104 0 -260 38 -260 168c0 33 16 64 40 86c-10 17 -14 36 -14 55c0 46 22 103 62 128c-23 35 -35 70 -35 112c0 110 99 202 207 202c43 0 68 -6 104 -29c30 37 81 67 129 67c8 0 16 -1 24 -3v-117c-14 4 -28 6 -42 6c-19 0 -38 -3 -54 -14
c25 -23 36 -65 36 -98c0 -121 -73 -198 -195 -198h-27c-22 0 -44 1 -65 8c-6 -3 -15 -9 -15 -17c0 -3 1 -5 3 -7c22 -20 42 -22 70 -22c60 0 117 9 177 9c83 0 127 -54 127 -132z" />
    <glyph glyph-name="h" unicode="h" horiz-adv-x="500" 
d="M298 0v333c0 91 -20 122 -99 80v-413h-159v759l154 53v-291c169 62 266 -20 266 -211v-310h-162z" />
    <glyph glyph-name="i" unicode="i" horiz-adv-x="240" 
d="M46 614v119h147v-119h-147zM40 0v530h160v-530h-160z" />
    <glyph glyph-name="j" unicode="j" horiz-adv-x="275" 
d="M104 614v121h147v-121h-147zM-34 -199v104c143 0 131 95 131 253v373h154v-374c0 -199 -8 -356 -285 -356z" />
    <glyph glyph-name="k" unicode="k" horiz-adv-x="510" 
d="M323 0l-129 203v-203h-154v759l154 56v-453l117 191h182l-205 -255l232 -298h-197z" />
    <glyph glyph-name="l" unicode="l" horiz-adv-x="237" 
d="M40 0v759l157 54v-813h-157z" />
    <glyph glyph-name="m" unicode="m" horiz-adv-x="728" 
d="M198 502c62 34 153 62 200 -10c131 95 290 56 290 -127v-365h-157v363c0 71 -34 86 -89 63v-426h-145v359c0 62 -40 86 -95 63v-422h-162v525h133z" />
    <glyph glyph-name="n" unicode="n" horiz-adv-x="507" 
d="M309 0v291c0 36 2 71 -10 106c-9 25 -22 35 -55 29c0 0 -21 -4 -47 -17v-409h-157v525h133l20 -22c20 7 34 11 40 12c103 51 234 30 234 -186v-329h-158z" />
    <glyph glyph-name="o" unicode="o" horiz-adv-x="534" 
d="M285 -19c-209 0 -244 182 -244 297c0 132 80 263 244 263c178 0 233 -149 233 -263c0 -127 -15 -297 -233 -297zM285 439c-73 0 -82 -113 -82 -161c0 -53 -2 -193 82 -193c75 0 81 117 81 193c0 86 -12 161 -81 161z" />
    <glyph glyph-name="p" unicode="p" horiz-adv-x="497" 
d="M234 -25c-15 0 -30 2 -45 6v-128l-159 -57v674l18 28c66 20 109 45 182 46c175 1 235 -146 235 -296c0 -129 -79 -273 -231 -273zM186 453v-364c11 -4 21 -6 30 -6c66 0 87 114 87 210c0 85 -17 193 -117 160z" />
    <glyph glyph-name="q" unicode="q" horiz-adv-x="483" 
d="M317 -209v210c-17 -5 -35 -7 -53 -7c-171 0 -223 179 -223 276c0 250 203 329 411 234l15 -29v-630zM318 443c-9 2 -18 2 -24 2c-80 0 -84 -105 -84 -160c0 -58 -4 -186 85 -186c7 0 15 1 23 2v342z" />
    <glyph glyph-name="r" unicode="r" horiz-adv-x="417" 
d="M200 278v-278h-160v530h160v-67c44 39 106 85 207 85v-131c-142 0 -207 -48 -207 -139z" />
    <glyph glyph-name="s" unicode="s" 
d="M235 -20c-122 0 -215 47 -215 199h157c0 -74 20 -86 62 -86c41 0 57 23 57 70c0 93 -260 -1 -260 206c0 106 94 174 202 174c115 0 191 -53 191 -164h-153c0 15 6 56 -41 56c-31 0 -47 -17 -47 -61c0 -21 49 -32 66 -36c115 -27 198 -43 198 -178
c0 -115 -92 -180 -217 -180z" />
    <glyph glyph-name="t" unicode="t" horiz-adv-x="387" 
d="M233 427v-112v-106c0 -16 -4 -86 17 -102c22 -17 63 -14 109 2v-92c-53 -25 -97 -33 -140 -33c-120 0 -142 102 -142 169v130v144h-77v103h83v109l150 55v-164h134v-103h-134z" />
    <glyph glyph-name="u" unicode="u" 
d="M302 -40l-8 27c-31 -9 -71 -15 -103 -15c-113 0 -151 74 -151 163v395h160v-329c0 -59 4 -147 85 -88v417h152v-532z" />
    <glyph glyph-name="v" unicode="v" horiz-adv-x="453" 
d="M292 0h-147l-160 530h169l75 -340l74 340h150z" />
    <glyph glyph-name="w" unicode="w" horiz-adv-x="630" 
d="M501 0h-139l-42 254l-39 -254h-138l-143 530h148l65 -291l58 291h95l66 -289l55 289h143z" />
    <glyph glyph-name="x" unicode="x" horiz-adv-x="541" 
d="M351 -1l-81 144l-85 -144h-185l187 278l-172 253h182l71 -122l68 122h168l-153 -249l190 -282h-190z" />
    <glyph glyph-name="y" unicode="y" horiz-adv-x="552" 
d="M253 -200h-186l126 255l-193 474h177l101 -295l104 295h170z" />
    <glyph glyph-name="z" unicode="z" horiz-adv-x="485" 
d="M25 0v85l257 344h-236v99h424v-84l-255 -347h260v-97h-450z" />
    <glyph glyph-name="braceleft" unicode="{" horiz-adv-x="444" 
d="M299 687c0 -79 9 -217 -53 -279c48 -54 55 -168 55 -168c0 -28 -5 -119 3 -146c5 -14 9 -40 68 -40v-78c-92 -11 -237 -22 -237 149c0 55 -1 116 -2 164c-1 46 -21 75 -73 75v79c34 0 36 9 46 20c26 28 29 157 29 227c0 107 59 158 239 145v-81c-78 0 -75 -55 -75 -67z
" />
    <glyph glyph-name="bar" unicode="|" horiz-adv-x="256" 
d="M60 -20v804h126v-804h-126z" />
    <glyph glyph-name="braceright" unicode="}" horiz-adv-x="444" 
d="M135 687c0 -79 -9 -217 53 -279c-48 -54 -55 -168 -55 -168c0 -28 5 -119 -3 -146c-5 -14 -9 -40 -68 -40v-78c92 -11 237 -22 237 149c0 55 1 116 2 164c1 46 21 75 73 75v79c-34 0 -36 9 -46 20c-26 28 -29 157 -29 227c0 107 -59 158 -239 145v-81c78 0 75 -55 75 -67
z" />
    <glyph glyph-name="asciitilde" unicode="~" horiz-adv-x="507" 
d="M318 420c-66 0 -95 31 -124 31c0 0 -19 -1 -55 -35l-74 56c26 44 78 80 131 82c63 2 97 -38 129 -37c0 0 15 1 52 29l63 -66c-59 -61 -122 -60 -122 -60z" />
    <glyph glyph-name="yen" unicode="&#xa5;" horiz-adv-x="500" 
d="M402 384c0 -87 -70 -157 -157 -157s-157 70 -157 157c0 86 70 157 157 157s157 -71 157 -157z" />
    <glyph glyph-name="scaron" unicode="&#x161;" horiz-adv-x="733" 
d="M673 351c0 -161 -139 -291 -311 -291s-312 130 -312 291s140 291 312 291s311 -130 311 -291zM594 351c0 122 -103 220 -231 220s-232 -98 -232 -220s104 -221 232 -221s231 99 231 221zM516 207h-101l-76 126h-29l4 -126h-83l-1 271l8 20c56 8 90 9 90 9
c42 4 166 10 166 -87c0 -44 -39 -71 -77 -81zM411 426c0 27 -16 37 -39 41c-21 3 -43 1 -64 -1v-94c48 1 103 4 103 54z" />
    <glyph glyph-name="copyright" unicode="&#xa9;" horiz-adv-x="734" 
d="M674 352c0 -161 -140 -292 -312 -292s-312 131 -312 292s140 291 312 291s312 -130 312 -291zM595 352c0 122 -104 220 -232 220s-232 -98 -232 -220s104 -220 232 -220s232 98 232 220zM523 399h-84c0 45 -24 65 -63 65c-77 0 -89 -67 -89 -102c0 -40 4 -110 84 -110
c2 0 67 0 66 65h83c0 -64 -51 -122 -149 -122c-121 0 -172 76 -172 165c0 96 79 162 178 158c0 0 139 -6 146 -119z" />
    <glyph glyph-name="ordfeminine" unicode="&#xaa;" horiz-adv-x="938" 
d="M878 351h-86v274l2 24l-95 -196h-50l-99 193l3 -21v-274h-90v396h104l107 -220l100 220h104v-396zM399 685h-125v-334h-93v334h-131v63h349v-63z" />
    <glyph glyph-name="guillemotleft" unicode="&#xab;" horiz-adv-x="269" 
d="M238 697c-70 -52 -142 -67 -142 -67l-22 58c57 41 93 94 93 94z" />
    <glyph glyph-name="logicalnot" unicode="&#xac;" horiz-adv-x="487" 
d="M397 688v0v-89h-99v89h99zM226 688v-89h-100v89h100z" />
    <glyph glyph-name="Ccedilla" unicode="&#xc7;" horiz-adv-x="624" 
 />
    <glyph glyph-name="Egrave" unicode="&#xc8;" horiz-adv-x="624" 
 />
    <glyph glyph-name="Eacute" unicode="&#xc9;" horiz-adv-x="748" 
 />
    <glyph glyph-name="Ecircumflex" unicode="&#xca;" horiz-adv-x="326" 
 />
    <glyph glyph-name="Ograve" unicode="&#xd2;" horiz-adv-x="491" 
d="M430 675c0 -8 0 -17 6 -54l-179 20c18 59 42 105 90 153l97 -41c-11 -36 -14 -57 -14 -78zM202 671c0 -7 0 -14 5 -50l-178 20c18 59 42 105 90 153l97 -40c-12 -38 -14 -61 -14 -83z" />
    <glyph glyph-name="Oacute" unicode="&#xd3;" horiz-adv-x="491" 
d="M43 740c0 8 0 17 -6 54l179 -20c-18 -59 -42 -105 -90 -153l-97 41c11 36 14 57 14 78zM271 744c0 7 0 14 -5 50l178 -20c-18 -59 -42 -105 -90 -153l-97 40c12 38 14 61 14 83z" />
    <glyph glyph-name="Ocircumflex" unicode="&#xd4;" horiz-adv-x="307" 
d="M227 671c0 -7 0 -15 5 -50l-178 20c18 60 42 105 89 153l98 -40c-11 -38 -14 -61 -14 -83z" />
    <glyph glyph-name="Otilde" unicode="&#xd5;" horiz-adv-x="306" 
d="M152 618l-96 41c11 36 14 57 14 78c0 9 0 17 -7 54l179 -20c-18 -60 -42 -105 -90 -153z" />
    <glyph glyph-name="adieresis" unicode="&#xe4;" horiz-adv-x="610" 
 />
  </font>
</defs>
</svg>
