<?xml version="1.0" encoding="UTF-8" standalone="no"?>
<svg width="258px" height="69px" viewBox="0 0 258 69" version="1.1" xmlns="http://www.w3.org/2000/svg" xmlns:xlink="http://www.w3.org/1999/xlink">
    <!-- Generator: Sketch 3.8.3 (29802) - http://www.bohemiancoding.com/sketch -->
    <title>LOGO</title>
    <desc>Created with Sketch.</desc>
    <defs>
        <polygon id="path-1" points="0 24.5397033 158.26224 24.5397033 158.26224 0 0 0"></polygon>
    </defs>
    <g id="Page-1" stroke="none" stroke-width="1" fill="none" fill-rule="evenodd">
        <g id="Artboard-1" transform="translate(-113.000000, -163.000000)">
            <g id="LOGO" transform="translate(113.000000, 163.000000)">
                <rect id="BG" fill="#FFFFFF" x="0" y="0" width="258" height="69"></rect>
                <g id="tagline" transform="translate(50.000000, 39.000000)">
                    <mask id="mask-2" fill="white">
                        <use xlink:href="#path-1"></use>
                    </mask>
                    <g id="Clip-4"></g>
                    <polygon id="Fill-15" fill="#9B9B9B" mask="url(#mask-2)" points="25.68645 4.75130112 22.61881 4.75130112 19.94867 17.3712089 17.93785 17.3712089 20.61011 4.75130112 17.41845 4.75130112 17.65165 3.61968524 25.92071 3.61968524"></polygon>
                    <path d="M27.147024,8.22127105 C24.977204,8.22127105 23.954304,12.4087811 23.954304,14.1173617 C23.954304,14.907899 24.062424,16.509162 25.157404,16.509162 C26.215284,16.509162 26.608544,14.5827586 26.770724,13.7762831 C27.127944,11.9784483 27.488344,10.1614876 27.847684,8.36471532 C27.631444,8.27546111 27.380224,8.22127105 27.147024,8.22127105 L27.147024,8.22127105 Z M27.900684,17.4250802 L26.267224,17.6599038 L26.305384,17.2805734 C25.872904,17.5855253 25.354564,17.7842221 24.833044,17.7842221 C22.931404,17.7842221 22.233924,15.7335004 22.233924,14.1343625 C22.233924,11.5289896 23.721104,7.340417 26.860824,7.340417 C27.561484,7.340417 28.978704,7.75481155 29.515064,8.18514435 L29.605164,8.49115878 L27.900684,17.4250802 Z" id="Fill-16" fill="#9B9B9B" mask="url(#mask-2)"></path>
                    <path d="M33.659134,6.10031476 L32.096694,6.10031476 L32.511154,4.19409984 L34.071474,4.19409984 L33.659134,6.10031476 Z M31.398154,17.3707839 L29.605694,17.3707839 L31.633474,7.8439595 L33.425934,7.8439595 L31.398154,17.3707839 Z" id="Fill-17" fill="#9B9B9B" mask="url(#mask-2)"></path>
                    <polygon id="Fill-18" fill="#9B9B9B" mask="url(#mask-2)" points="35.440676 17.3712089 33.699096 17.3712089 36.606676 3.61968524 38.490296 2.97259222"></polygon>
                    <path d="M42.852408,8.30946271 C41.329188,8.30946271 40.254348,11.114595 39.985108,12.3567161 C39.838828,13.0378107 39.750848,13.7390938 39.750848,14.4403769 C39.750848,15.321231 39.911968,16.7067963 41.075848,16.7067963 C43.121648,16.7067963 43.982368,11.9072574 43.982368,10.3229952 C43.982368,9.56964715 43.857288,8.30946271 42.852408,8.30946271 M45.633848,12.3567161 C45.096428,14.962089 43.948448,17.8745389 40.825688,17.8745389 C38.656928,17.8745389 37.937188,16.2382117 37.937188,14.3139334 C37.937188,11.2580393 39.482668,7.3574178 43.050628,7.3574178 C45.076288,7.3574178 45.810868,8.95655573 45.810868,10.7575782 C45.810868,11.2962911 45.741968,11.8339415 45.633848,12.3567161" id="Fill-19" fill="#9B9B9B" mask="url(#mask-2)"></path>
                    <path d="M53.363368,9.22878107 C51.840148,9.22878107 49.401088,10.7917923 48.790528,13.414166 L47.930868,17.3711026 L46.207308,17.3711026 L48.235088,7.84321572 L50.028608,7.84321572 L49.456208,10.6472855 C49.652308,9.71330393 52.253548,7.39375702 53.829768,7.39375702 L53.363368,9.22878107 Z" id="Fill-20" fill="#9B9B9B" mask="url(#mask-2)"></path>
                    <polygon id="Fill-21" fill="#9B9B9B" mask="url(#mask-2)" points="73.179326 4.80219727 70.113806 4.80219727 67.441546 17.4210425 65.430726 17.4210425 68.104046 4.80219727 64.911326 4.80219727 65.145586 3.66951885 73.413586 3.66951885"></polygon>
                    <path d="M74.987792,8.6663733 C73.320412,8.6663733 72.583712,11.076237 72.368532,12.3523597 C73.749712,12.1355994 76.044612,12.4586147 76.044612,10.1953829 C76.044612,9.5652907 75.775372,8.6663733 74.987792,8.6663733 M72.188332,13.5190397 C72.116252,13.8973075 72.081272,14.2755754 72.081272,14.6538432 C72.081272,15.4985706 72.314472,16.4686788 73.389312,16.4686788 C74.502312,16.4686788 74.879672,15.7132057 75.182832,14.5624639 L76.673192,15.3901905 C76.278872,16.7205032 75.130892,17.6364214 73.658552,17.7267382 C71.488732,17.8531816 70.340752,16.7013773 70.340752,14.4020188 C70.340752,11.4173156 71.777052,7.46144146 75.255972,7.46144146 C76.816292,7.46144146 77.621892,8.90013432 77.621892,10.282512 C77.621892,13.6093565 74.321052,13.1790237 72.188332,13.5190397" id="Fill-22" fill="#9B9B9B" mask="url(#mask-2)"></path>
                    <path d="M83.818758,10.4469948 C83.888718,9.85302927 83.672478,8.75435245 82.921998,8.66616079 C80.788218,8.41433641 79.908418,12.8356075 79.908418,14.4368705 C79.908418,15.1020269 80.085438,16.3600862 80.983258,16.4854671 C82.004038,16.6299739 83.008918,15.5153589 83.008918,14.1850461 L84.481258,14.9936468 C84.481258,15.9828809 83.296178,17.7807157 81.182538,17.7807157 C79.207758,17.7807157 78.006778,16.4684663 78.006778,14.4729972 C78.006778,11.4882939 79.566038,7.46122895 83.190178,7.46122895 C85.053658,7.46122895 85.343038,9.56507819 85.343038,9.56507819 L83.818758,10.4469948 Z" id="Fill-23" fill="#9B9B9B" mask="url(#mask-2)"></path>
                    <path d="M93.21375,11.0041961 C92.87561,13.1250461 92.44313,15.2458962 92.04775,17.3667462 L90.14717,17.3667462 L91.27819,11.7575441 C91.40327,11.129577 91.51139,10.4814214 91.51139,9.83432839 C91.51139,9.40399559 91.45839,8.54120489 90.84889,8.54120489 C90.50651,8.54120489 90.11219,8.81109262 89.86097,9.0267903 C89.03841,9.70894747 88.44481,11.2560204 88.22857,12.2803188 L87.20567,17.3667462 L85.34325,17.3667462 L88.03247,3.27414395 L89.84189,2.8958761 L88.87305,8.55820569 C89.43273,7.91217522 90.31147,7.39046311 91.19021,7.39046311 C92.67633,7.39046311 93.32187,8.48701484 93.32187,9.85345429 C93.32187,10.2285345 93.26887,10.6269908 93.21375,11.0041961" id="Fill-24" fill="#9B9B9B" mask="url(#mask-2)"></path>
                    <path d="M101.78279,11.0758119 C101.42345,13.196662 101.01217,15.317512 100.61785,17.4383621 L98.71621,17.4383621 L99.84617,11.8312851 C99.97125,11.2022554 100.08043,10.5551624 100.08043,9.90594427 C100.08043,9.47561147 100.02425,8.61282077 99.41369,8.61282077 C99.05753,8.61282077 98.69819,8.8827085 98.43001,9.07928027 C98.30387,9.16959703 98.19575,9.3300421 98.10459,9.43842221 C97.42513,10.2831496 97.01385,11.309573 96.79655,12.3519346 L95.77471,17.4383621 L93.90911,17.4383621 L95.77471,7.75003007 L97.65833,7.37388733 L97.46011,8.62982157 C97.72935,8.30574379 98.24875,7.94766439 98.60809,7.73090417 C98.96637,7.53326985 99.36175,7.44401564 99.75501,7.44401564 C101.24537,7.44401564 101.89197,8.54056736 101.89197,9.92613272 C101.89197,10.3022755 101.85487,10.6986067 101.78279,11.0758119" id="Fill-25" fill="#9B9B9B" mask="url(#mask-2)"></path>
                    <path d="M107.929518,8.36025261 C106.405238,8.36025261 105.328278,11.1653849 105.059038,12.4064435 C104.915938,13.0875381 104.824778,13.7888212 104.824778,14.4901043 C104.824778,15.3720209 104.985898,16.7554611 106.154018,16.7554611 C108.197698,16.7554611 109.056298,11.9569848 109.056298,10.3737851 C109.056298,9.6193745 108.931218,8.36025261 107.929518,8.36025261 M110.707778,12.4064435 C110.169298,15.0118164 109.022378,17.9242662 105.903858,17.9242662 C103.732978,17.9242662 103.014298,16.2879391 103.014298,14.3636608 C103.014298,11.3088292 104.555538,7.40714515 108.125618,7.40714515 C110.152338,7.40714515 110.887978,9.00628308 110.887978,10.806243 C110.887978,11.3449559 110.815898,11.8826063 110.707778,12.4064435" id="Fill-26" fill="#9B9B9B" mask="url(#mask-2)"></path>
                    <polygon id="Fill-27" fill="#9B9B9B" mask="url(#mask-2)" points="113.160194 17.4210425 111.418614 17.4210425 114.326194 3.66951885 116.209814 3.02242582"></polygon>
                    <path d="M120.35664,8.36025261 C118.8313,8.36025261 117.75434,11.1653849 117.48616,12.4064435 C117.342,13.0875381 117.2519,13.7888212 117.2519,14.4901043 C117.2519,15.3720209 117.41302,16.7554611 118.58008,16.7554611 C120.62588,16.7554611 121.48342,11.9569848 121.48342,10.3737851 C121.48342,9.6193745 121.35728,8.36025261 120.35664,8.36025261 M123.13384,12.4064435 C122.59642,15.0118164 121.44738,17.9242662 118.32992,17.9242662 C116.15904,17.9242662 115.44142,16.2879391 115.44142,14.3636608 C115.44142,11.3088292 116.98266,7.40714515 120.55168,7.40714515 C122.57946,7.40714515 123.3151,9.00628308 123.3151,10.806243 C123.3151,11.3449559 123.24196,11.8826063 123.13384,12.4064435" id="Fill-28" fill="#9B9B9B" mask="url(#mask-2)"></path>
                    <path d="M127.856352,17.9242662 L127.874372,17.9242662 C127.890272,17.8158861 127.909352,17.7085686 127.925252,17.6001885 C127.890272,17.6905052 127.874372,17.8158861 127.856352,17.9242662 L127.856352,17.9242662 Z M128.823072,8.28906175 C127.211872,8.28906175 126.205932,11.1653849 125.919732,12.4415076 C125.773452,13.0875381 125.668512,13.7548196 125.668512,14.4178508 C125.668512,15.1191339 125.863552,16.8829671 126.815432,16.8829671 C127.856352,16.8829671 128.375752,14.707927 128.536872,13.9152646 L129.575672,8.50582197 C129.342472,8.38044106 129.093372,8.28906175 128.823072,8.28906175 L128.823072,8.28906175 Z M125.074912,20.1715597 C124.538552,20.6922093 124.036112,21.5741259 124.036112,22.3465998 C124.036112,23.0308821 124.447392,23.3708982 125.110952,23.3708982 C126.941572,23.3708982 127.497012,20.0993063 127.731272,18.734992 C126.761372,18.9666279 125.811612,19.4692141 125.074912,20.1715597 L125.074912,20.1715597 Z M129.700752,17.114603 C129.163332,19.8846712 128.913172,24.5397033 125.110952,24.5397033 C123.658752,24.5397033 122.329512,23.7109142 122.329512,22.1319647 C122.329512,19.5064034 125.739532,18.3195349 127.856352,17.9242662 L127.998392,17.114603 C127.513972,17.4748075 126.904472,17.7616961 126.296032,17.7616961 C124.521592,17.7616961 123.946012,15.4984643 123.946012,14.0778348 C123.946012,11.505401 125.578412,7.47833601 128.608952,7.47833601 C129.325512,7.47833601 130.688672,7.87572975 131.244112,8.326251 L131.335272,8.63014034 L129.700752,17.114603 Z" id="Fill-29" fill="#9B9B9B" mask="url(#mask-2)"></path>
                    <path d="M135.04029,18.1764094 C134.19865,19.0753268 131.88679,21.3938111 130.64871,21.4480012 L130.64871,19.7585465 C131.92177,19.4875962 133.91351,17.5293164 134.52089,16.3966379 L132.45813,7.89304932 L134.52089,7.89304932 L135.72399,15.1194527 C136.94193,13.3938713 138.00193,9.96077185 138.57433,7.89304932 L140.70917,7.89304932 C139.40007,11.4345289 137.62457,15.4084663 135.04029,18.1764094" id="Fill-30" fill="#9B9B9B" mask="url(#mask-2)"></path>
                    <path d="M62.020388,9.35851844 C61.211608,9.35851844 60.737788,10.4030052 60.633908,10.9342803 L61.568828,10.9342803 L61.490388,11.3178609 L60.580908,11.3178609 L60.025468,14.2048095 C59.833608,15.2269828 59.265448,16.3681616 57.909708,16.3681616 L58.010408,15.8220108 C58.828728,15.8220108 59.140368,14.7360846 59.241068,14.2048095 L59.801808,11.3178609 L59.101148,11.3178609 L59.179588,10.9342803 L59.896148,10.9342803 C60.066808,10.0459884 60.876648,8.75711508 61.984348,8.75711508 C62.027808,8.75711508 62.075508,8.75711508 62.121088,8.76561548 L62.020388,9.35851844 Z" id="Fill-31" fill="#9B9B9B" mask="url(#mask-2)"></path>
                    <path d="M57.398364,11.1390337 C56.734804,11.1390337 56.268404,12.3556536 56.151804,12.8933039 C56.088204,13.1918805 56.052164,13.4957698 56.052164,13.7985966 C56.052164,14.1811147 56.120004,14.782518 56.625624,14.782518 C57.513904,14.782518 57.888084,12.6999198 57.888084,12.0113873 C57.888084,11.6851844 57.832964,11.1390337 57.398364,11.1390337 M58.603584,12.8933039 C58.369324,14.0259824 57.872184,15.290417 56.516444,15.290417 C55.575164,15.290417 55.263524,14.579571 55.263524,13.7444066 C55.263524,12.418344 55.933444,10.7235766 57.482104,10.7235766 C58.362964,10.7235766 58.682024,11.4195469 58.682024,12.1994587 C58.682024,12.4332197 58.651284,12.6680433 58.603584,12.8933039" id="Fill-32" fill="#9B9B9B" mask="url(#mask-2)"></path>
                    <polygon id="Fill-33" fill="#9B9B9B" mask="url(#mask-2)" points="51.50116 12.8650401 54.71826 12.8650401 54.71826 12.3358901 51.50116 12.3358901"></polygon>
                    <polygon id="Fill-34" fill="#9B9B9B" mask="url(#mask-2)" points="61.5754 12.8650401 64.79568 12.8650401 64.79568 12.3358901 61.5754 12.3358901"></polygon>
                    <polygon id="Fill-35" fill="#9B9B9B" mask="url(#mask-2)" points="142.305 12.8650401 158.26224 12.8650401 158.26224 12.3358901 142.305 12.3358901"></polygon>
                    <polygon id="Fill-36" fill="#9B9B9B" mask="url(#mask-2)" points="0 12.6004651 15.95724 12.6004651 15.95724 12.0713152 0 12.0713152"></polygon>
                </g>
                <g id="name" transform="translate(41.000000, 14.000000)" fill="#9B9B9B">
                    <polygon id="Fill-3" points="16.84896 19.8730279 21.1165333 19.8730279 21.1165333 0.579795349 16.84896 0.579795349"></polygon>
                    <path d="M9.69773867,11.6009605 L9.69773867,0.58065814 L13.2869653,0.58065814 L13.2869653,19.8985419 L8.11656533,19.8985419 L4.55309867,9.71021628 C3.723872,7.6925186 3.473632,6.73358837 3.473632,6.73358837 C3.473632,6.73358837 3.82445867,7.89342558 3.82445867,9.86182093 L3.82445867,19.8985419 L0.285525333,19.8985419 L0.285525333,0.58065814 L5.05480533,0.58065814 L8.96909867,11.7266814 C9.64744533,13.2402628 9.99949867,14.8290302 9.99949867,14.8290302 C9.99949867,14.8290302 9.69773867,13.5434721 9.69773867,11.6009605 L9.69773867,11.6009605 Z" id="Fill-1"></path>
                    <path d="M24.252384,10.1637977 C24.252384,6.20358837 25.507264,0.000123255814 31.4050773,0.000123255814 C34.9452373,0.000123255814 37.0784107,2.47140233 37.0784107,7.1625186 L33.4131307,7.21305349 C33.4131307,5.09428605 32.9617173,3.27872791 31.2308907,3.27872791 C29.021664,3.27872791 28.6696107,8.3728907 28.6696107,10.1637977 C28.6696107,11.9300535 28.5702507,16.8726116 31.2799573,16.8726116 C33.1628907,16.8726116 33.338304,14.2990302 33.338304,12.5352395 C34.9194773,12.5352395 37.2035307,12.5857744 37.2035307,12.5857744 C37.2035307,14.729193 37.2035307,20.378007 31.2799573,20.378007 C24.830144,20.378007 24.252384,14.0475884 24.252384,10.1637977" id="Fill-5"></path>
                    <path d="M44.4815893,11.6009605 L44.4815893,19.8738907 L40.3403627,19.8738907 L40.3403627,0.58065814 L44.4815893,0.58065814 L44.4815893,7.23770465 L48.799456,0.58065814 L53.7944427,0.58065814 L49.9537493,6.15428605 C49.1245227,7.28823953 47.7702827,9.05449535 47.7702827,9.05449535 C47.7702827,9.05449535 49.0742293,10.7443326 49.903456,11.8536349 C49.903456,11.8536349 53.4926827,16.6963558 55.7019093,19.8738907 L49.8028693,19.8738907 L44.4815893,11.6009605 Z" id="Fill-6"></path>
                    <path d="M64.483248,10.1637977 C64.483248,6.20358837 65.7369013,0.000123255814 71.6359413,0.000123255814 C75.1761013,0.000123255814 77.3092747,2.47140233 77.3092747,7.1625186 L73.6439947,7.21305349 C73.6439947,5.09428605 73.1925813,3.27872791 71.460528,3.27872791 C69.252528,3.27872791 68.9004747,8.3728907 68.9004747,10.1637977 C68.9004747,11.9300535 68.8011147,16.8726116 71.5108213,16.8726116 C73.3937547,16.8726116 73.569168,14.2990302 73.569168,12.5352395 C75.1503413,12.5352395 77.4343947,12.5857744 77.4343947,12.5857744 C77.4343947,14.729193 77.4343947,20.378007 71.5108213,20.378007 C65.061008,20.378007 64.483248,14.0475884 64.483248,10.1637977" id="Fill-7"></path>
                    <path d="M84.7112267,10.0878721 C84.7112267,12.6848721 84.5345867,17.3525698 87.1706933,17.3525698 C89.8313333,17.3525698 89.6313867,12.5603837 89.6313867,10.0878721 C89.6313867,7.16301163 89.50504,3.20280233 87.09464,3.20280233 C84.9614667,3.20280233 84.7112267,7.08659302 84.7112267,10.0878721 M80.0682933,10.1889419 C80.0682933,4.71638372 82.1769333,0.0499186047 87.0455733,0.0499186047 C92.31656,0.0499186047 93.8977333,4.89263953 93.8977333,10.1889419 C93.8977333,15.8131047 92.6931467,20.3785 87.09464,20.3785 C81.3477067,20.3785 80.0682933,15.5098953 80.0682933,10.1889419" id="Fill-8"></path>
                    <polygon id="Fill-9" points="103.278912 19.8737674 98.9610453 19.8737674 98.9610453 3.45609302 94.4935253 3.45609302 94.4935253 0.580534884 107.571019 0.580534884 107.571019 3.45609302 103.278912 3.45609302"></polygon>
                    <polygon id="Fill-10" points="117.859931 19.8737674 113.542064 19.8737674 113.542064 3.45609302 109.074544 3.45609302 109.074544 0.580534884 122.152037 0.580534884 122.152037 3.45609302 117.859931 3.45609302"></polygon>
                    <path d="M129.1276,8.92754186 C131.91336,9.15556512 133.49576,7.99449535 133.49576,5.62305349 C133.49576,3.00016977 132.466587,2.54658837 129.1276,2.90033256 L129.1276,8.92754186 Z M129.1276,11.4247047 L129.1276,19.8738907 L125.062427,19.8738907 L125.062427,1.56300698 L125.688027,0.8321 C130.734533,-0.0762953488 137.83816,-1.0081093 137.83816,5.82519302 C137.83816,9.93577442 133.520293,10.9464721 133.119173,11.0204256 L138.740987,19.8738907 L133.696933,19.8738907 L129.1276,11.4247047 Z" id="Fill-11"></path>
                    <polygon id="Fill-12" points="141.123541 0.580165116 151.891221 0.580165116 151.891221 3.20304884 145.088128 3.20304884 145.088128 8.09630465 151.063221 8.09630465 151.063221 10.9213279 145.164181 10.9213279 145.164181 16.9978395 152.191755 16.9978395 152.191755 19.8733977 141.123541 19.8733977"></polygon>
                    <polygon id="Fill-13" points="155.202608 0.580165116 159.520475 0.580165116 159.520475 17.0237233 165.643995 17.0237233 165.643995 19.8733977 155.202608 19.8733977"></polygon>
                    <polygon id="Fill-14" points="168.027531 0.580165116 172.345397 0.580165116 172.345397 17.0237233 178.468917 17.0237233 178.468917 19.8733977 168.027531 19.8733977"></polygon>
                </g>
                <path d="M6.5,7.5 L6.5,62.5" id="Line" stroke="#CCCCCC" stroke-linecap="square" stroke-dasharray="2"></path>
                <path d="M251.5,7.5 L251.5,62.5" id="Line-Copy" stroke="#CCCCCC" stroke-linecap="square" stroke-dasharray="2"></path>
            </g>
        </g>
    </g>
</svg>