<?xml version="1.0" encoding="UTF-8" standalone="no"?>
<svg width="162px" height="115px" viewBox="0 0 162 115" version="1.1" xmlns="http://www.w3.org/2000/svg" xmlns:xlink="http://www.w3.org/1999/xlink">
    <!-- Generator: Sketch 3.8.3 (29802) - http://www.bohemiancoding.com/sketch -->
    <title>TWITTER</title>
    <desc>Created with Sketch.</desc>
    <defs></defs>
    <g id="Page-1" stroke="none" stroke-width="1" fill="none" fill-rule="evenodd">
        <g id="Artboard-1" transform="translate(-113.000000, -268.000000)">
            <g id="TWITTER" transform="translate(113.000000, 268.000000)">
                <path d="M81,114.008789 L81,0 L0,0 L0,114.384009 L41,99 L81,114.008789 Z" id="Combined-Shape" fill="#D8D8D8"></path>
                <path d="M162,114.008789 L162,0 L81,0 L81,114.384009 L122,99 L162,114.008789 Z" id="Combined-Shape-Copy" fill="#BBBBBB"></path>
                <path d="M13,67.6278028 C13.8827682,67.7320129 14.7810271,67.785325 15.691759,67.785325 C20.9783094,67.785325 25.8437946,65.9813636 29.7056037,62.9550459 C24.7678957,62.8639124 20.6006986,59.6016131 19.1648926,55.1185669 C19.8537254,55.2503383 20.5606643,55.3209518 21.2877208,55.3209518 C22.3169465,55.3209518 23.3137825,55.183145 24.2607264,54.925235 C19.098504,53.888767 15.2091335,49.3280661 15.2091335,43.8608581 C15.2091335,43.8133802 15.2091335,43.7661034 15.2099382,43.7190278 C16.7314459,44.5641757 18.4712316,45.0717473 20.3210615,45.1302901 C17.2933355,43.1068437 15.3010717,39.6530232 15.3010717,35.7383043 C15.3010717,33.6703976 15.8575295,31.7320495 16.828816,30.0654925 C22.3941988,36.8922601 30.7086763,41.3845605 40.0867808,41.8551154 C39.8944548,41.0292805 39.7944694,40.1680383 39.7944694,39.2836607 C39.7944694,33.0521782 44.8468488,28 51.0787337,28 C54.324134,28 57.2567029,29.3704232 59.3151542,31.5634625 C61.8854018,31.0572991 64.3003402,30.1182011 66.480504,28.8252314 C65.6379714,31.4600571 63.8488972,33.6714035 61.519057,35.0679798 C63.8016204,34.7951827 65.9763525,34.1886316 68,33.2911774 C66.4871429,35.5540254 64.573942,37.5414609 62.3694356,39.132375 C62.3911628,39.6162076 62.4020264,40.1028567 62.4020264,40.5921211 C62.4020264,55.5032188 51.0523794,72.6972823 30.2972676,72.6972823 C23.9249607,72.6972823 17.9936355,70.8293464 13,67.6278028 Z" id="Fill-1" fill="#FFFFFF"></path>
                <path d="M94,67.6278028 C94.8827682,67.7320129 95.7810271,67.785325 96.691759,67.785325 C101.978309,67.785325 106.843795,65.9813636 110.705604,62.9550459 C105.767896,62.8639124 101.600699,59.6016131 100.164893,55.1185669 C100.853725,55.2503383 101.560664,55.3209518 102.287721,55.3209518 C103.316946,55.3209518 104.313783,55.183145 105.260726,54.925235 C100.098504,53.888767 96.2091335,49.3280661 96.2091335,43.8608581 C96.2091335,43.8133802 96.2091335,43.7661034 96.2099382,43.7190278 C97.7314459,44.5641757 99.4712316,45.0717473 101.321061,45.1302901 C98.2933355,43.1068437 96.3010717,39.6530232 96.3010717,35.7383043 C96.3010717,33.6703976 96.8575295,31.7320495 97.828816,30.0654925 C103.394199,36.8922601 111.708676,41.3845605 121.086781,41.8551154 C120.894455,41.0292805 120.794469,40.1680383 120.794469,39.2836607 C120.794469,33.0521782 125.846849,28 132.078734,28 C135.324134,28 138.256703,29.3704232 140.315154,31.5634625 C142.885402,31.0572991 145.30034,30.1182011 147.480504,28.8252314 C146.637971,31.4600571 144.848897,33.6714035 142.519057,35.0679798 C144.80162,34.7951827 146.976352,34.1886316 149,33.2911774 C147.487143,35.5540254 145.573942,37.5414609 143.369436,39.132375 C143.391163,39.6162076 143.402026,40.1028567 143.402026,40.5921211 C143.402026,55.5032188 132.052379,72.6972823 111.297268,72.6972823 C104.924961,72.6972823 98.9936355,70.8293464 94,67.6278028 Z" id="Fill-1-Copy" fill="#FFFFFF"></path>
                <path d="M5.5,4.5 L5.5,107.543678" id="Line" stroke-opacity="0.784618433" stroke="#9B9B9B" stroke-linecap="square" stroke-dasharray="2"></path>
                <path d="M86.5,4.5 L86.5,107.543678" id="Line-Copy-3" stroke-opacity="0.784618433" stroke="#9B9B9B" stroke-linecap="square" stroke-dasharray="2"></path>
                <path d="M75.5,4.5 L75.5,107.543678" id="Line-Copy-2" stroke-opacity="0.784618433" stroke="#9B9B9B" stroke-linecap="square" stroke-dasharray="2"></path>
                <path d="M156.5,4.5 L156.5,107.543678" id="Line-Copy-4" stroke-opacity="0.784618433" stroke="#9B9B9B" stroke-linecap="square" stroke-dasharray="2"></path>
            </g>
        </g>
    </g>
</svg>